<mxfile host="Electron" agent="Mozilla/5.0 (Windows NT 10.0; Win64; x64) AppleWebKit/537.36 (KHTML, like Gecko) draw.io/27.0.2 Chrome/134.0.6998.205 Electron/35.3.0 Safari/537.36" version="27.0.2">
  <diagram id="C5RBs43oDa-KdzZeNtuy" name="Page-1">
    <mxGraphModel dx="1396" dy="811" grid="1" gridSize="10" guides="1" tooltips="1" connect="1" arrows="1" fold="1" page="1" pageScale="1" pageWidth="827" pageHeight="1169" math="0" shadow="0">
      <root>
        <mxCell id="WIyWlLk6GJQsqaUBKTNV-0" />
        <mxCell id="WIyWlLk6GJQsqaUBKTNV-1" parent="WIyWlLk6GJQsqaUBKTNV-0" />
        <mxCell id="4H0rE7auC8YkeHV7vE1Y-1" value="&lt;span style=&quot;background-color: light-dark(rgb(245, 245, 245), rgb(245, 245, 245));&quot;&gt;&lt;font style=&quot;font-size: 28px;&quot;&gt;&lt;span style=&quot;color: rgb(77, 77, 77); font-family: &amp;quot;cascadia code&amp;quot;; font-style: normal; font-weight: 400; letter-spacing: normal; text-align: left; text-indent: 0px; text-transform: none; word-spacing: 0px; display: inline; float: none;&quot;&gt;if &lt;/span&gt;&lt;b style=&quot;color: rgb(77, 77, 77); font-family: &amp;quot;cascadia code&amp;quot;; font-style: normal; letter-spacing: normal; text-align: left; text-indent: 0px; text-transform: none; word-spacing: 0px;&quot;&gt;&lt;font color=&quot;#ffb570&quot; style=&quot;font-size: 28px;&quot;&gt;&amp;lt;expresión condicional&amp;gt;&lt;/font&gt;&lt;/b&gt;&lt;span style=&quot;font-family: &amp;quot;cascadia code&amp;quot;; font-style: normal; letter-spacing: normal; text-align: left; text-indent: 0px; text-transform: none; word-spacing: 0px; display: inline; float: none;&quot;&gt;&lt;b&gt;&lt;font color=&quot;#0000ee&quot; style=&quot;font-size: 28px;&quot;&gt;:&lt;/font&gt;&lt;/b&gt;&lt;/span&gt;&lt;br style=&quot;color: rgb(77 , 77 , 77) ; font-family: &amp;quot;cascadia code&amp;quot; ; font-style: normal ; font-weight: 400 ; letter-spacing: normal ; text-align: left ; text-indent: 0px ; text-transform: none ; word-spacing: 0px&quot;&gt;&lt;font style=&quot;font-family: &amp;quot;cascadia code&amp;quot;; font-style: normal; letter-spacing: normal; text-align: left; text-indent: 0px; text-transform: none; word-spacing: 0px; font-size: 28px;&quot;&gt;&lt;font color=&quot;#4d4d4d&quot;&gt;&amp;nbsp; &amp;nbsp;&amp;nbsp;&lt;/font&gt;&lt;b style=&quot;color: rgb(181, 115, 157);&quot;&gt;&amp;lt;código bloque if&amp;gt;&lt;br&gt;&lt;/b&gt;&lt;/font&gt;&lt;span style=&quot;color: rgb(77, 77, 77); font-family: &amp;quot;cascadia code&amp;quot;;&quot;&gt;else&lt;/span&gt;&lt;span style=&quot;font-family: &amp;quot;cascadia code&amp;quot;;&quot;&gt;&lt;b&gt;&lt;font color=&quot;#0000ee&quot; style=&quot;font-size: 28px;&quot;&gt;:&lt;br&gt;&lt;/font&gt;&lt;/b&gt;&lt;/span&gt;&lt;/font&gt;&lt;span style=&quot;color: rgb(181, 115, 157); font-family: &amp;quot;cascadia code&amp;quot;; font-size: 28px;&quot;&gt;&lt;b&gt;&amp;nbsp; &amp;nbsp; &amp;lt;código bloque else&amp;gt;&lt;/b&gt;&lt;/span&gt;&lt;/span&gt;" style="text;whiteSpace=wrap;html=1;fontSize=35;fontFamily=Cascadia Code;fontColor=#333333;fillColor=#F5F5F5;strokeColor=#666666;spacingLeft=10;" parent="WIyWlLk6GJQsqaUBKTNV-1" vertex="1">
          <mxGeometry x="100" y="200" width="470" height="180" as="geometry" />
        </mxCell>
      </root>
    </mxGraphModel>
  </diagram>
</mxfile>
